<svg width="50" height="47" viewBox="0 0 50 47" fill="none" xmlns="http://www.w3.org/2000/svg">
<path fill-rule="evenodd" clip-rule="evenodd" d="M26.0542 15.9271C25.3813 17.6062 25 19.4354 25 21.3542C25 26.9146 28.1146 31.7479 32.6937 34.2062C30.7167 41.2021 24.2875 46.3521 16.6667 46.3521C7.47708 46.3521 0 38.875 0 29.6854C0 20.4958 7.47708 13.0187 16.6667 13.0187C20.1458 13.0187 23.3792 14.0958 26.0542 15.9271ZM14.5833 30.55L21.4438 37.4083L24.3896 34.4646L18.75 28.825V19.2708H14.5833V30.55Z" fill="#636985"/>
<path d="M39.5834 0.518738C43.0563 14.4062 35.4167 18.7479 35.4167 18.7479V11.7021C31.8604 13.25 29.1667 16.9833 29.1667 21.3542C29.1667 27.1083 33.8292 31.7708 39.5834 31.7708C45.3375 31.7708 50 27.1083 50 21.3542C50 15.9875 50 10.9354 39.5834 0.518738Z" fill="#546DE5"/>
</svg>
